<svg xmlns="http://www.w3.org/2000/svg" version="1.1" xmlns:xlink="http://www.w3.org/1999/xlink" xmlns:svgjs="http://svgjs.dev/svgjs" width="1000" height="1000" viewBox="0 0 1000 1000"><rect width="1000" height="1000" fill="#ffffff"></rect><g transform="matrix(0.7,0,0,0.7,149.5757575827729,453.013498024181)"><svg viewBox="0 0 396 53" data-background-color="#1ebbd7" preserveAspectRatio="xMidYMid meet" height="133" width="1000" xmlns="http://www.w3.org/2000/svg" xmlns:xlink="http://www.w3.org/1999/xlink"><g id="tight-bounds" transform="matrix(1,0,0,1,0.24000000396864607,0.24849351837536915)"><svg viewBox="0 0 395.52 52.50301448679749" height="52.50301448679749" width="395.52"><g><svg viewBox="0 0 395.52 52.50301448679749" height="52.50301448679749" width="395.52"><g><svg viewBox="0 0 395.52 52.50301448679749" height="52.50301448679749" width="395.52"><g><svg viewBox="0 0 395.52 52.50301448679749" height="52.50301448679749" width="395.52"><g><svg viewBox="0 0 395.52 52.50301448679749" height="52.50301448679749" width="395.52"><g transform="matrix(1,0,0,1,0,0)"><svg width="395.52" viewBox="1.1200000047683716 -30.959999084472656 237.61000061035156 31.549999237060547" height="52.50301448679749" data-palette-color="#010c80"><path d="M12.65 0Q17.38 0 20.29-1.28 23.19-2.56 24.43-4.64 25.66-6.71 25.66-9.28L25.66-9.28Q25.66-10.96 24.78-12.56 23.9-14.16 22.19-15.22 20.48-16.28 18.09-16.41L18.09-16.41 18.09-16.58Q20.56-17.7 21.84-19.53 23.12-21.36 23.12-23.61L23.12-23.61Q23.12-25.54 22-27.14 20.87-28.74 18.58-29.71 16.28-30.69 12.94-30.69L12.94-30.69Q10.4-30.69 8.18-30.46 5.96-30.22 2.86-29.76L2.86-29.76 1.51-29.57 1.29-28.2 5.47-27.56 5.47-2.34 1.37-1.42 1.12 0 12.65 0ZM9.06-28.96Q9.84-29.1 11.5-29.1L11.5-29.1Q15.55-29.1 17.57-27.31 19.58-25.51 19.58-22.51L19.58-22.51Q19.58-20.51 18.58-19.03 17.58-17.55 15.99-16.72L15.99-16.72 9.06-16.72 9.06-28.96ZM9.06-15.09L14.89-15.09Q17.31-15.09 18.91-14.11 20.51-13.13 21.24-11.62 21.97-10.11 21.97-8.47L21.97-8.47Q21.97-6.71 21.23-5.21 20.48-3.71 18.85-2.77 17.21-1.83 14.72-1.83L14.72-1.83 9.06-1.83 9.06-15.09ZM27.9 0L38.5 0 38.74-1.54 34.23-2.32 37.42-11.11 47.8-11.11 50.83-2.47 46.7-1.42 46.46 0 57.74 0 57.93-1.56 54.64-2.32 44.82-30.96 42.33-30.42 31.64-2.47 28.1-1.42 27.9 0ZM38.11-13.04L42.82-25.88 47.21-13.04 38.11-13.04ZM71.8 0Q76.53 0 79.44-1.28 82.34-2.56 83.58-4.64 84.81-6.71 84.81-9.28L84.81-9.28Q84.81-10.96 83.93-12.56 83.05-14.16 81.34-15.22 79.63-16.28 77.24-16.41L77.24-16.41 77.24-16.58Q79.71-17.7 80.99-19.53 82.27-21.36 82.27-23.61L82.27-23.61Q82.27-25.54 81.15-27.14 80.02-28.74 77.73-29.71 75.43-30.69 72.09-30.69L72.09-30.69Q69.55-30.69 67.33-30.46 65.11-30.22 62.01-29.76L62.01-29.76 60.66-29.57 60.44-28.2 64.62-27.56 64.62-2.34 60.52-1.42 60.27 0 71.8 0ZM68.21-28.96Q68.99-29.1 70.65-29.1L70.65-29.1Q74.7-29.1 76.72-27.31 78.73-25.51 78.73-22.51L78.73-22.51Q78.73-20.51 77.73-19.03 76.73-17.55 75.14-16.72L75.14-16.72 68.21-16.72 68.21-28.96ZM68.21-15.09L74.04-15.09Q76.46-15.09 78.06-14.11 79.66-13.13 80.39-11.62 81.12-10.11 81.12-8.47L81.12-8.47Q81.12-6.71 80.38-5.21 79.63-3.71 78-2.77 76.36-1.83 73.87-1.83L73.87-1.83 68.21-1.83 68.21-15.09ZM87-29L90.4-28.13 99.04-12.13 99.04-2.34 95.09-1.42 94.89 0 106.68 0 106.9-1.54 102.7-2.22 102.7-12.43 111.17-28.22 114.27-29 114.42-30.37 104.24-30.37 104.09-29 108.59-28.13 101.58-14.77 94.35-28.22 98.33-29 98.53-30.37 87.22-30.37 87-29ZM116.69-29L121.16-28 121.16-2.34 117.08-1.42 116.93 0 127.87 0 128.12-1.54 123.62-2.2 123.62-25.56 141.03 0.59 143.57 0.07 143.57-28.22 147.62-28.98 147.89-30.37 136.9-30.37 136.68-28.98 141.2-28.17 141.2-5.49 124.92-30.37 116.93-30.37 116.69-29ZM150.09 0L160.68 0 160.93-1.54 156.41-2.32 159.61-11.11 169.98-11.11 173.01-2.47 168.88-1.42 168.64 0 179.92 0 180.11-1.56 176.82-2.32 167-30.96 164.51-30.42 153.82-2.47 150.28-1.42 150.09 0ZM160.29-13.04L165-25.88 169.4-13.04 160.29-13.04ZM182.46 0L193.05 0 193.3-1.54 188.78-2.32 191.98-11.11 202.35-11.11 205.38-2.47 201.25-1.42 201.01 0 212.29 0 212.49-1.56 209.19-2.32 199.37-30.96 196.88-30.42 186.19-2.47 182.65-1.42 182.46 0ZM192.66-13.04L197.37-25.88 201.77-13.04 192.66-13.04ZM214.9-1.73L215.07 0 237.56 0 238.73-8.2 237.04-8.47 234.24-1.93 219.15-1.93 238.31-29 238.26-30.37 216.22-30.37 216-22.41 217.56-22.05 219.46-28.56 233.8-28.56 214.9-1.73Z" opacity="1" transform="matrix(1,0,0,1,0,0)" fill="#000000" class="undefined-text-0" data-fill-palette-color="primary" id="text-0"></path></svg></g></svg></g></svg></g></svg></g><g></g></svg></g><defs></defs></svg><rect width="395.52" height="52.50301448679749" fill="none" stroke="none" visibility="hidden"></rect></g></svg></g></svg>