<svg version="1.2" xmlns="http://www.w3.org/2000/svg" viewBox="0 0 400 600" width="400" height="600">
	<title>New Project</title>
	<style>
		.s0 { fill: #cd7d49 } 
		.s1 { fill: #ecdbe3 } 
		.s2 { fill: #25243d } 
		.s3 { fill: #f7bf86 } 
		.s4 { fill: #fff1fb } 
		.s5 { fill: #2d2a46 } 
		.s6 { fill: #3f4258 } 
		.s7 { fill: #ddccd7 } 
		.s8 { fill: #baaab5 } 
		.s9 { fill: #7f3600 } 
		.s10 { fill: #7b2f00 } 
		.s11 { fill: #000000 } 
		.s12 { fill: #9ab7d1 } 
		.s13 { fill: #a5c2d9 } 
		.s14 { fill: #8394b3 } 
	</style>
	<g id="&lt;Group&gt;">
		<path id="&lt;Path&gt;" class="s0" d="m157.3 525.3l27.1 7.5 5.1-18.7-27-7.4z"/>
		<path id="&lt;Path&gt;" class="s1" d="m123.9 535.4c38.5 15.4 58.7 16.2 58.7 16.2 0 0 1.1-3.4 2.3-7.5 1.2-4.2 2.5-9.1 3-11.5 0.8-4.8-1.5-7-1.5-7-20 3.8-27-6.5-27-6.5-9 2.9-19.5-2.5-26-2-1 0.1-2 0.4-2.8 0.8-8 4.7-6.7 17.5-6.7 17.5z"/>
		<path id="&lt;Path&gt;" class="s2" d="m123.9 535.4c38.5 15.4 58.7 16.2 58.7 16.2 0 0 1.1-3.4 2.3-7.5-17.8-1-43.8-11-43.8-11 1.5-3.9 0.6-13-7.7-16-1 0.1-2 0.4-2.8 0.8-8 4.7-6.7 17.5-6.7 17.5z"/>
		<path id="&lt;Path&gt;" class="s3" d="m223.2 519.6h28v19.3h-28z"/>
		<path id="&lt;Path&gt;" class="s4" d="m193.6 557.6c41.2 4.6 60.9 0 60.9 0 0 0 0.1-3.6 0.2-7.8 0.1-4.4 0.1-9.5-0.2-12-0.4-4.8-3.3-6.3-3.3-6.3-18.2 9-27.7 0.9-27.7 0.9-7.9 5.2-19.5 2.8-25.6 5-1 0.4-1.8 0.9-2.5 1.5-6.5 6.7-1.8 18.7-1.8 18.7z"/>
		<path id="&lt;Path&gt;" class="s5" d="m193.6 557.6c41.2 4.6 60.9 0 60.9 0 0 0 0.1-3.6 0.2-7.8-17.4 3.7-45.1 1-45.1 1 0.4-4.2-2.9-12.7-11.7-13.4-1 0.4-1.8 0.9-2.5 1.5-6.5 6.7-1.8 18.7-1.8 18.7z"/>
		<path id="&lt;Path&gt;" class="s5" d="m237.7 344.8c-3.6 44.1-14.8 110.3-21.4 146.9-2.8 16.2-4.8 26.6-4.8 26.6 0 0-11.1 3.2-25.7 1.9-11.3-0.9-24.7-4.5-36.7-14.3l4.9-26.8 34.5-186 15.8 3.1 32 6.4c1.2 1.9 2 5.5 2.3 10.3 0.6 7.8 0.2 18.9-0.9 31.9z"/>
		<path id="&lt;Path&gt;" class="s2" d="m154 479.1l-4.9 26.8c27.7 22.5 62.4 12.4 62.4 12.4 0 0 2-10.4 4.8-26.6-3.5 1.1-28.9 7.8-62.3-12.6z"/>
		<path id="&lt;Path&gt;" class="s6" d="m186.2 305.5v4c0 16.6 4.3 32.9 12.4 47.4l1.6 136.4 0.4 27.2c31.6 16.7 63.6 0 63.6 0 0 0-0.1-10.5-0.4-27-0.7-37.1-2.6-104.3-7.6-148.2-1.4-13-3.2-24-5.3-31.5-1.3-4.7-2.7-8-4.3-9.7z"/>
		<path id="&lt;Path&gt;" class="s5" d="m246.5 526.5l-1.4-0.1c3.1-31.8 3.6-129.4-4.1-185-2.7-19.3-6.1-31.7-10.1-36.9q-0.2-0.2-0.4-0.5l1.1-0.9q0.2 0.3 0.5 0.6c4.2 5.4 7.6 18 10.3 37.5 7.8 55.7 7.3 153.5 4.1 185.3z"/>
		<path id="&lt;Path&gt;" class="s5" d="m200.2 493.3l0.4 27.2c31.6 16.7 63.6 0 63.6 0 0 0-0.1-10.5-0.4-27-3.2 1.7-26.8 13.2-63.6-0.2z"/>
		<path id="&lt;Path&gt;" class="s5" d="m204.9 304.1v25.5c0 3.7-2.9 6.6-6.6 6.6l-0.4-32.1z"/>
		<path id="&lt;Path&gt;" class="s5" d="m231.1 341.5c4.4 2.1 8.2 1.1 10.6-0.2-2.5-17.9-5.8-31.5-10.2-37.2h-6.2c-0.8 11.5-1 34.1 5.8 37.4z"/>
		<path id="&lt;Path&gt;" class="s5" d="m248.9 332.2c0.5 11 5.6 14.3 7.3 13.1-1.4-13-3.2-24-5.3-31.5h-4.9c0 0 2.6 11.6 2.9 18.4z"/>
		<path id="&lt;Path&gt;" class="s3" d="m206.1 187.4v34.9l13.5-8.6v-33.8l-0.2 0.1z"/>
		<path id="&lt;Path&gt;" class="s0" d="m206.1 187.4v21.4c7.4-8.1 13.8-21.8 13.3-28.8z"/>
		<path id="&lt;Path&gt;" class="s7" d="m209.6 233.1c-0.5 6.4-2.4 21-7.2 35.4-1.3 3.8-2.8 7.6-4.5 11.2-10.6 11.5-35.7 15.2-48.4 16.3-4.7 0.4-7.7 0.5-7.7 0.5l-16.9-5.1c0 0 6.1-2.7 14.1-6.3 6.6-2.9 14.5-6.5 21.4-9.8 6.9-3.3 12.7-6.3 14.9-8 3.3-8.8 6.8-19.5 8-26.7 2.3-13.8 3.7-18.4 8-21.7 4.3-3.3 7.5-7.3 7.5-7.3l2.1-2.9c0 0 9.9 10.6 8.7 24.4z"/>
		<path id="&lt;Path&gt;" class="s4" d="m250.1 310.3c-2.6 1.7-5.5 1.7-8.5 0.5q-1.3-0.5-2.6-1.4c-0.3 0.1-16.5 6.5-31.2 6.5-3.1 0-6.2-0.3-9-1-16.2-3.9-15-9.8-12.9-13.6 0.4-0.8 0.9-2.2 1.3-4 1.5-6 2.6-16.4 2.6-24.1q0-2.1-0.3-4c-1.3-7.5-5.5-12.7-3.2-20.5 2.6-9.3 8.1-14.1 9.6-22 1.3-6.3 2.5-12.7 2.9-15.1 0.2-0.6 0.2-0.9 0.2-0.9l1.1-4.6c0 0 7.5 2.4 21.7-1.3l2 4.5c0 0 2.5 1.5 5.3 2.8q0.5 0.2 1 0.5c3.1 1.3 6 3.1 8.2 4.6 3 2 5 3.7 5 3.7 0 0 3.7 9.2 4.1 26.2q0.1 3.9 0 8.4-0.1 2.5-0.3 5.2 0 0.1 0 0.2c-0.4 5.5-0.6 10-0.7 13.9-0.1 9.9 0.9 15.1 2.2 18.5 0.5 1.5 1 2.7 1.5 3.8l0.4 0.8c2.1 4.6 4.2 9.5-0.4 12.4z"/>
		<path id="&lt;Path&gt;" class="s8" d="m179.5 276.2q-0.2 0-0.3-0.1c-4.1-2.4-4.1-8.5-4.1-8.8 0-0.3 0.2-0.6 0.5-0.7 0.4-0.1 0.7 0.1 0.8 0.4 1.6 3.5 6.9 3.8 6.9 3.8 0.4 0 0.7 0.3 0.7 0.7 0 0.4-0.3 0.7-0.7 0.7-0.2 0-3.9-0.2-6.5-2.3 0.4 1.7 1.3 3.8 3.1 4.9 0.4 0.2 0.5 0.7 0.3 1-0.2 0.2-0.4 0.4-0.7 0.4z"/>
		<path id="&lt;Path&gt;" class="s1" d="m250.1 310.3c-2.6 1.7-5.5 1.7-8.5 0.5q-1.3-0.5-2.6-1.4c-0.3 0.1-16.5 6.5-31.2 6.5-3.1 0-6.2-0.3-9-1-16.2-3.9-15-9.8-12.9-13.6 0.4-0.8 0.9-2.2 1.3-4 1.5-6 2.6-16.4 2.6-24.1q0-2.1-0.3-4c-1.3-7.5-5.5-12.7-3.2-20.5 2.6-9.3 8.1-14.1 9.6-22 1.3-6.3 2.5-12.7 2.9-15.1 7.4 32.1 29.4 37.8 48.6 35.5q0.1 3.9 0 8.4-0.1 2.5-0.3 5.2 0 0.1 0 0.2c-0.4 5.5-0.6 10-0.7 13.9-0.1 9.9 0.9 15.1 2.2 18.5 0.5 1.5 1 2.7 1.5 3.8l0.4 0.8c2.1 4.6 4.2 9.5-0.4 12.4z"/>
		<path id="&lt;Path&gt;" class="s3" d="m199.5 195.7c10.4 0.7 15.7-3.4 18.2-8.9 2.2-4.7 2.4-10.4 2-15.1-0.8-9.9-1.2-16.9-1.2-16.9h-29.7c0 0-1.8 8.3-1.9 17.4-0.1 10.8 2.2 22.8 12.6 23.5z"/>
		<path id="&lt;Path&gt;" class="s9" d="m202.2 190.1q-0.9 0-1.7-0.2c-0.4-0.2-0.6-0.6-0.5-0.9 0.2-0.4 0.6-0.6 1-0.5 1 0.3 2.2 0.2 3.1-0.3 0.7-0.4 1.2-1 1.3-1.6 0.1-0.4 0.5-0.7 0.9-0.6 0.4 0.1 0.6 0.5 0.5 0.9-0.2 1-0.9 2-2 2.6-0.8 0.4-1.7 0.6-2.6 0.6z"/>
		<path id="&lt;Path&gt;" class="s9" d="m198.1 180.9c-0.1-0.4-0.6-0.5-0.9-0.2-0.8 1.2-2 3.3-1.5 4.4 0.6 1.2 2.2 0.5 2.9 0.1 0.2 0 0.3-0.3 0.3-0.5z"/>
		<path id="&lt;Path&gt;" class="s9" d="m203.6 177.7c-0.6 0-1.2-0.9-1.2-1.9 0-1 0.6-1.9 1.2-1.9 0.7 0 1.2 0.9 1.2 1.9 0 1-0.5 1.9-1.2 1.9z"/>
		<path id="&lt;Path&gt;" class="s9" d="m191.1 177.7c-0.7 0-1.2-0.9-1.2-1.9 0-1 0.5-1.9 1.2-1.9 0.6 0 1.2 0.9 1.2 1.9 0 1-0.6 1.9-1.2 1.9z"/>
		<path id="&lt;Path&gt;" class="s0" d="m186.9 172.2q0 0.1 0 0.1c0-4.3 3-9 3-9 1.3 5.8 7.2 6.4 12.5 3.5 5.4-2.8 16.2-8.9 13.6-3.3-2.5 5.5-2.8 22.9 1.7 23.3 2.2-4.7 2.4-10.4 2-15.1-0.8-9.9-1.2-16.9-1.2-16.9h-29.7c0 0-1.8 8.3-1.9 17.4z"/>
		<path id="&lt;Path&gt;" class="s10" d="m186.9 170.8c0-4.2 3-8.9 3-8.9 1.3 5.7 7.2 6.3 12.5 3.5q1.1-0.6 2.4-1.3c5.7-3 13.5-6.9 11.2-2-2.6 5.6-2.8 24.4 2.3 23.2 19.7-4.4 18-24 10.5-32.7q-1.1-1.3-2.4-2.2c-1.5-1.1-3.2-2.1-5-2.9q-1.2-0.6-2.5-1c-11.9-4.3-27.7-2.7-31.7 6.7-5 11.5-0.3 17.6-0.3 17.6z"/>
		<path id="&lt;Path&gt;" class="s9" d="m221.4 147.5q0.1 0.7 0.3 1.4l4.7 3.2q1.3 0.4 2.4 0.5c6.7 0.9 10.2-2.5 11.5-6.5 0.9-3.2 0.5-6.7-0.9-8.9-4.3-6.6-16.5-7.9-18.5 1.8q0 0.1 0 0.2c-0.5 2.2-0.4 4.9 0.5 8.3z"/>
		<path id="&lt;Path&gt;" class="s10" d="m221.4 147.5q0.1 0.7 0.3 1.4l4.7 3.2q1.3 0.4 2.4 0.5c6.7 0.9 10.2-2.5 11.5-6.5-4.7 3.8-20.5-0.9-19.4-6.9-0.5 2.2-0.4 4.9 0.5 8.3z"/>
		<path id="&lt;Path&gt;" class="s3" d="m221.6 187.2c-3.6 0-6.6-2.7-6.6-6 0-3.4 3-6.1 6.6-6.1 3.6 0 6.6 2.7 6.6 6.1 0 3.3-3 6-6.6 6z"/>
		<path id="&lt;Path&gt;" class="s0" d="m223.5 184.1q-0.1 0-0.1 0c-0.3-0.1-0.4-0.3-0.4-0.6 1-3.4-2.4-4.8-2.6-4.9-0.2-0.1-0.3-0.4-0.2-0.6 0.1-0.3 0.4-0.4 0.6-0.3 1.5 0.6 4.1 2.7 3.2 6.1-0.1 0.2-0.3 0.3-0.5 0.3z"/>
		<path id="&lt;Path&gt;" class="s0" d="m218.9 183.2c-0.2 0-0.4-0.1-0.5-0.3-0.1-0.2 0.1-0.5 0.3-0.6 0.1 0 2.8-1 3.8-2.6 0.2-0.2 0.5-0.3 0.7-0.1 0.2 0.1 0.3 0.4 0.1 0.7-1.1 1.8-4.1 2.9-4.2 2.9q-0.1 0-0.2 0z"/>
		<path id="&lt;Path&gt;" class="s11" d="m238.8 309.8q-2.5-1.5-4.9-4l0.6-0.6q2.4 2.4 4.7 3.8z"/>
		<path id="&lt;Path&gt;" class="s1" d="m198.8 211.6q0.7 0.1 1.4 0.2 0.6 0.1 1.4 0.2 0.5 0.1 1 0.1 0.7 0.1 1.4 0.1 0.8 0.1 1.7 0.2 0.7 0 1.4 0.1 0.9 0 1.8 0 0.7 0.1 1.4 0.1 0.8 0 1.7-0.1 0.7 0 1.4 0 0.9-0.1 1.7-0.2 0.7-0.1 1.4-0.2 0.9-0.1 1.7-0.3 0.8-0.2 1.4-0.4 0.9-0.2 1.7-0.6 0.8-0.3 1.4-0.7 0.5-0.3 1-0.7 0.1-0.1 0.1-0.1l-0.1-0.4-1.2-2.5-0.7-1.6q-0.3 0.1-0.7 0.2-0.9 0.2-1.7 0.4-0.7 0.1-1.4 0.3-0.9 0.1-1.7 0.3-0.8 0.1-1.4 0.2-0.9 0.2-1.8 0.3-0.7 0.1-1.4 0.1-0.9 0.1-1.7 0.2-0.7 0-1.4 0-0.9 0.1-1.7 0-0.8 0-1.4 0-1 0-1.8-0.1-0.7-0.1-1.4-0.2-0.6 0-1-0.1c-0.8-0.2-1.2-0.3-1.2-0.3l-0.2 0.8-0.9 3.8c0 0 0 0.3-0.2 0.9z"/>
		<path id="&lt;Path&gt;" class="s7" d="m209.6 261.1q-0.3 0-0.6-0.3c-0.9-0.9-4-0.9-6.6-0.9-2.6 0-4.2 0-5.1-0.5-0.3-0.3-0.4-0.7-0.2-1 0.2-0.4 0.6-0.5 1-0.3 0.6 0.4 2.6 0.4 4.3 0.4 3.1 0 6.3-0.1 7.7 1.3 0.3 0.3 0.2 0.8 0 1q-0.3 0.3-0.5 0.3z"/>
		<g id="&lt;Group&gt;">
			<path id="&lt;Path&gt;" class="s7" d="m221.1 205l0.2 5.8q0.8-0.3 1.4-0.7l-0.2-3.7-0.7-1.6q-0.3 0.1-0.7 0.2z"/>
		</g>
		<g id="&lt;Group&gt;">
			<path id="&lt;Path&gt;" class="s7" d="m218 205.7l0.2 6.1q0.8-0.2 1.4-0.4l-0.2-6q-0.7 0.1-1.4 0.3z"/>
		</g>
		<g id="&lt;Group&gt;">
			<path id="&lt;Path&gt;" class="s7" d="m214.9 206.2l0.2 6.1q0.7-0.1 1.4-0.2l-0.2-6.1q-0.8 0.1-1.4 0.2z"/>
		</g>
		<g id="&lt;Group&gt;">
			<path id="&lt;Path&gt;" class="s7" d="m211.7 206.6l0.3 5.9q0.7 0 1.4 0l-0.3-6q-0.7 0.1-1.4 0.1z"/>
		</g>
		<g id="&lt;Group&gt;">
			<path id="&lt;Path&gt;" class="s7" d="m208.6 206.8l0.3 5.7q0.7 0.1 1.4 0.1l-0.3-5.8q-0.7 0-1.4 0z"/>
		</g>
		<g id="&lt;Group&gt;">
			<path id="&lt;Path&gt;" class="s7" d="m205.5 206.8l0.2 5.6q0.7 0 1.4 0.1l-0.2-5.7q-0.8 0-1.4 0z"/>
		</g>
		<g id="&lt;Group&gt;">
			<path id="&lt;Path&gt;" class="s7" d="m202.3 206.5l0.3 5.6q0.7 0.1 1.4 0.1l-0.3-5.5q-0.7-0.1-1.4-0.2z"/>
		</g>
		<g id="&lt;Group&gt;">
			<path id="&lt;Path&gt;" class="s7" d="m199.9 206.9l0.3 4.9q0.6 0.1 1.4 0.2l-0.3-5.6c-0.8-0.2-1.2-0.3-1.2-0.3z"/>
		</g>
		<g id="&lt;Group&gt;">
			<path id="&lt;Path&gt;" class="s11" d="m234.3 284.4l-5.9 3.2q-0.1-0.6-0.2-1.2c0 0 0.7-0.5 2-1.4l3.8-2q0.1 0.6 0.3 1.4z"/>
		</g>
		<g id="&lt;Group&gt;">
			<path id="&lt;Path&gt;" class="s11" d="m235.2 287.5l-6 3.3q-0.2-0.7-0.4-1.4l6-3.3q0.2 0.6 0.4 1.4z"/>
		</g>
		<g id="&lt;Group&gt;">
			<path id="&lt;Path&gt;" class="s11" d="m236.1 290.5l-6 3.3q-0.2-0.6-0.4-1.3l6-3.3q0.2 0.6 0.4 1.3z"/>
		</g>
		<g id="&lt;Group&gt;">
			<path id="&lt;Path&gt;" class="s11" d="m237.1 293.5l-5.8 3.2q-0.3-0.6-0.5-1.3l5.9-3.2q0.2 0.7 0.4 1.3z"/>
		</g>
		<g id="&lt;Group&gt;">
			<path id="&lt;Path&gt;" class="s11" d="m238.2 296.5l-5.4 3q-0.3-0.5-0.7-1.2l5.6-3.1q0.2 0.7 0.5 1.3z"/>
		</g>
		<g id="&lt;Group&gt;">
			<path id="&lt;Path&gt;" class="s11" d="m239.3 299.5q-2 0.2-3.8 0.5l3.3-1.8q0.2 0.6 0.5 1.3z"/>
		</g>
		<path id="&lt;Path&gt;" class="s4" d="m250.5 297.9c-2.5 0.4-5 0.8-7.4 1.1q-1.6 0.2-3.1 0.4-0.4 0.1-0.7 0.1-3 0.4-5.6 0.7-0.2 0-0.4 0c0 0-0.3-0.3-0.7-1.1q-0.4-0.6-0.8-1.5-0.3-0.6-0.7-1.3-0.3-0.7-0.6-1.6-0.3-0.6-0.5-1.3-0.3-0.8-0.5-1.6-0.2-0.7-0.4-1.4-0.2-0.8-0.4-1.7-0.2-0.7-0.3-1.4-0.1-0.4-0.2-0.9c0 0 1.3-0.9 3.3-2.3q1.1-0.7 2.4-1.6 0 0 0 0 0.7-0.5 1.6-1c3.1-2.1 6.9-4.5 10.9-6.7 2.7-1.6 5.5-3.1 8.3-4.4q-0.1-0.1-0.2-0.2c-2-3.4-4.6-6.6-7.4-9.5-7.9-8.3-17.1-14.2-17.1-14.2l0.1-33.9c7.3 3.2 13.2 8.3 13.2 8.3 0 0 36.9 27 39.6 50.7 1.9 17.2-15.9 23.4-32.4 26.3z"/>
		<path id="&lt;Path&gt;" class="s7" d="m256.7 274.2c-0.2 0-0.5-0.2-0.6-0.4q-0.7-1.5-1.6-3l-0.4-0.7 0.8-0.3c3-1.4 5.7-2.5 8.1-3.2 0.3-0.1 0.7 0.1 0.9 0.5 0.1 0.4-0.2 0.8-0.5 0.9q-3.2 0.9-7.2 2.8 0.7 1.2 1.2 2.4c0.2 0.3 0 0.8-0.4 0.9q-0.1 0.1-0.3 0.1z"/>
		<path id="&lt;Path&gt;" class="s7" d="m255 270.9q0 0-0.1 0c-0.4 0-0.6-0.4-0.6-0.8 0.4-4.3 5-10 5.2-10.2 0.3-0.3 0.7-0.4 1-0.1 0.4 0.2 0.4 0.7 0.2 1-0.1 0-4.6 5.6-5 9.5 0 0.4-0.3 0.6-0.7 0.6z"/>
		<path id="&lt;Path&gt;" class="s3" d="m231.7 285.2c0 0-4.1 3.7-7.4 4.3-3.4 0.6-8.9 1-8.9 3.4 0 2.3 7.4 1.4 8.1 2.7 0.8 1.3 0.9 7.6 0 10.9-0.8 3.2-4.2 7.4 0 10.8 0 0 1.6 1.7 6.2 1.7 0 0 6.6 2.1 8.6-4.2 2.1-6.3-2.8-13.6-2.8-16.2z"/>
		<path id="&lt;Path&gt;" class="s0" d="m224.7 317.3q-0.3 0-0.4-0.2c-0.2-0.3-0.1-0.6 0.1-0.7 0.1 0 4.5-3.1 4.8-14 0-0.2 0.3-0.5 0.5-0.5q0 0 0 0c0.3 0.1 0.5 0.3 0.5 0.5-0.3 11.5-5.1 14.7-5.3 14.8q-0.1 0.1-0.2 0.1z"/>
		<path id="&lt;Path&gt;" class="s0" d="m230.1 318.6c-0.2 0-0.4-0.2-0.4-0.4-0.1-0.3 0.1-0.5 0.3-0.6 0.1 0 5.1-1.4 3.3-14.4 0-0.3 0.2-0.5 0.4-0.5 0.3-0.1 0.5 0.1 0.6 0.4 1.9 14-3.8 15.4-4 15.4q-0.1 0.1-0.2 0.1z"/>
		<path id="&lt;Path&gt;" class="s12" d="m195.2 297.6h-79v-9.4h79c2.6 0 4.7 2.1 4.7 4.7 0 2.6-2.1 4.7-4.7 4.7z"/>
		<path id="&lt;Path&gt;" class="s13" d="m170.5 297.6h-54.3l-14.4-35.5-5.6-13.9c-0.6-1.4 0.4-3 2-3h49.5c0.9 0 1.7 0.5 2.1 1.4l8.4 20.7z"/>
		<g id="&lt;Group&gt;">
			<path id="&lt;Path&gt;" class="s1" d="m243.1 299q0.1 0 0 0-1.6 0.2-3.1 0.4-0.4 0.1-0.7 0.1-3 0.4-5.6 0.7-0.2 0-0.4 0c0 0-0.3-0.3-0.7-1.1q-0.4-0.6-0.8-1.5-0.3-0.6-0.7-1.3-0.3-0.7-0.6-1.6-0.3-0.6-0.5-1.3-0.3-0.8-0.5-1.6-0.2-0.7-0.4-1.4-0.2-0.8-0.4-1.7-0.2-0.7-0.3-1.4-0.1-0.4-0.2-0.9c0 0 1.3-0.9 3.3-2.3q1.1-0.7 2.4-1.6 0 0 0 0 0.7-0.5 1.6-1 0.2 0.3 0.5 0.7 0.4 0.7 0.9 1.5 0.4 0.6 0.8 1.2 0.4 0.8 0.8 1.5 0.4 0.6 0.7 1.3 0.4 0.7 0.8 1.5 0.3 0.6 0.6 1.3 0.4 0.8 0.7 1.6 0.3 0.6 0.6 1.3 0.3 0.8 0.5 1.6 0.2 0.7 0.4 1.4 0.2 0.9 0.3 1.7 0 0.2 0 0.5 0 0.2 0 0.4z"/>
			<g id="&lt;Group&gt;">
				<path id="&lt;Path&gt;" class="s7" d="m243.1 299q0.1 0 0 0-1.6 0.2-3.1 0.4l3.1-1.3q0 0.2 0 0.5 0 0.2 0 0.4z"/>
			</g>
			<g id="&lt;Group&gt;">
				<path id="&lt;Path&gt;" class="s7" d="m242.8 296.4l-9.1 3.8q-0.2 0-0.4 0c0 0-0.3-0.3-0.7-1.1l9.8-4.1q0.2 0.7 0.4 1.4z"/>
			</g>
			<g id="&lt;Group&gt;">
				<path id="&lt;Path&gt;" class="s7" d="m241.9 293.4l-10.1 4.2q-0.3-0.6-0.7-1.3l10.2-4.2q0.3 0.6 0.6 1.3z"/>
			</g>
			<g id="&lt;Group&gt;">
				<path id="&lt;Path&gt;" class="s7" d="m240.6 290.5l-10.1 4.2q-0.3-0.6-0.5-1.3l10-4.2q0.3 0.6 0.6 1.3z"/>
			</g>
			<g id="&lt;Group&gt;">
				<path id="&lt;Path&gt;" class="s7" d="m239.2 287.7l-9.7 4.1q-0.2-0.7-0.4-1.4l9.4-4q0.4 0.6 0.7 1.3z"/>
			</g>
			<g id="&lt;Group&gt;">
				<path id="&lt;Path&gt;" class="s7" d="m237.7 284.9l-9 3.8q-0.2-0.7-0.3-1.4l8.5-3.6q0.4 0.6 0.8 1.2z"/>
			</g>
			<g id="&lt;Group&gt;">
				<path id="&lt;Path&gt;" class="s7" d="m236 282.2l-4.5 1.9q1.1-0.7 2.4-1.6 0 0 0 0 0.7-0.5 1.6-1 0.2 0.3 0.5 0.7z"/>
			</g>
		</g>
		<path id="&lt;Path&gt;" class="s12" d="m170.5 297.6h-54.3l-14.4-35.5c16.5 12.4 45.1 10.2 56.4 5.2z"/>
		<path id="&lt;Path&gt;" class="s14" d="m129.2 276c-3.6 0-6.5-2.9-6.5-6.5 0-3.6 2.9-6.5 6.5-6.5 3.7 0 6.6 2.9 6.6 6.5 0 3.6-2.9 6.5-6.6 6.5z"/>
		<path id="&lt;Path&gt;" class="s3" d="m106.2 285.2c-2.6 2 1.3 17.8 8.4 17.1 7-0.7 10.2-4.5 8-9.7 0 0 0-2.7-1.9-3.4 0 0 0.7-2.8-1.7-4 0 0-0.5-9-12.8 0z"/>
		<path id="&lt;Path&gt;" class="s0" d="m109.4 288.7q-0.2 0-0.3-0.2c-0.2-0.2-0.2-0.5-0.1-0.7 1.9-2 9.1-3 9.4-3 0.3-0.1 0.5 0.1 0.5 0.4 0.1 0.2-0.1 0.5-0.4 0.5-2 0.3-7.4 1.3-8.7 2.8q-0.2 0.2-0.4 0.2z"/>
		<path id="&lt;Path&gt;" class="s0" d="m111.3 293.2c-0.2 0-0.5-0.2-0.5-0.4 0-0.3 0.2-0.5 0.5-0.6 2.7-0.3 8.6-3.4 8.7-3.4 0.2-0.2 0.5-0.1 0.7 0.2 0.1 0.2 0 0.5-0.2 0.6-0.3 0.2-6.2 3.3-9.2 3.6q0 0 0 0z"/>
		<path id="&lt;Path&gt;" class="s0" d="m114.4 297q-0.3 0-0.5 0c-0.3 0-0.5-0.3-0.4-0.6 0-0.2 0.2-0.4 0.5-0.4 3 0.4 7.8-3.8 7.8-3.8 0.2-0.2 0.5-0.2 0.7 0 0.2 0.2 0.1 0.5-0.1 0.7-0.2 0.2-4.6 4.1-8 4.1z"/>
	</g>
</svg>